<svg width="38" height="38" viewBox="0 0 38 38" fill="none" xmlns="http://www.w3.org/2000/svg">
<path d="M20.25 28.375C20.4158 28.375 20.5747 28.3092 20.6919 28.1919C20.8092 28.0747 20.875 27.9158 20.875 27.75V25.875H22.75C23.7213 25.8554 24.647 25.4596 25.3323 24.7709C26.0175 24.0823 26.4088 23.1547 26.4237 22.1833C26.4386 21.2119 26.076 20.2727 25.4122 19.5634C24.7484 18.8541 23.8352 18.4301 22.865 18.3806C23.3062 17.8935 23.6113 17.2988 23.7496 16.6563C23.8879 16.0137 23.8545 15.3461 23.6527 14.7206C23.451 14.0951 23.0881 13.5338 22.6004 13.0932C22.1128 12.6526 21.5177 12.3482 20.875 12.2106V10.25C20.875 10.0842 20.8092 9.92527 20.6919 9.80806C20.5747 9.69085 20.4158 9.625 20.25 9.625C20.0842 9.625 19.9253 9.69085 19.8081 9.80806C19.6908 9.92527 19.625 10.0842 19.625 10.25V12.125H18.375V10.25C18.375 10.0842 18.3092 9.92527 18.1919 9.80806C18.0747 9.69085 17.9158 9.625 17.75 9.625C17.5842 9.625 17.4253 9.69085 17.3081 9.80806C17.1908 9.92527 17.125 10.0842 17.125 10.25V12.125H13.375C13.2092 12.125 13.0503 12.1908 12.9331 12.3081C12.8158 12.4253 12.75 12.5842 12.75 12.75C12.75 12.9158 12.8158 13.0747 12.9331 13.1919C13.0503 13.3092 13.2092 13.375 13.375 13.375H15.25V24.625H13.375C13.2092 24.625 13.0503 24.6908 12.9331 24.8081C12.8158 24.9253 12.75 25.0842 12.75 25.25C12.75 25.4158 12.8158 25.5747 12.9331 25.6919C13.0503 25.8092 13.2092 25.875 13.375 25.875H17.125V27.75C17.125 27.9158 17.1908 28.0747 17.3081 28.1919C17.4253 28.3092 17.5842 28.375 17.75 28.375C17.9158 28.375 18.0747 28.3092 18.1919 28.1919C18.3092 28.0747 18.375 27.9158 18.375 27.75V25.875H19.625V27.75C19.625 27.9158 19.6908 28.0747 19.8081 28.1919C19.9253 28.3092 20.0842 28.375 20.25 28.375ZM22.5831 15.875C22.5831 16.538 22.3197 17.1739 21.8509 17.6428C21.3821 18.1116 20.7462 18.375 20.0831 18.375H16.5V13.375H20.0831C20.7462 13.375 21.3821 13.6384 21.8509 14.1072C22.3197 14.5761 22.5831 15.212 22.5831 15.875ZM16.5 19.625H22.75C23.413 19.625 24.0489 19.8884 24.5178 20.3572C24.9866 20.8261 25.25 21.462 25.25 22.125C25.25 22.788 24.9866 23.4239 24.5178 23.8928C24.0489 24.3616 23.413 24.625 22.75 24.625H16.5V19.625Z" fill="#5F82FF"/>
<path d="M19 0.25C15.2916 0.25 11.6665 1.34967 8.58307 3.40994C5.49964 5.47022 3.09641 8.39857 1.67727 11.8247C0.258124 15.2508 -0.113188 19.0208 0.610284 22.6579C1.33376 26.2951 3.11952 29.636 5.74176 32.2583C8.36399 34.8805 11.7049 36.6663 15.3421 37.3897C18.9792 38.1132 22.7492 37.7419 26.1753 36.3227C29.6014 34.9036 32.5298 32.5004 34.5901 29.4169C36.6503 26.3335 37.75 22.7084 37.75 19C37.7444 14.0289 35.7671 9.26305 32.252 5.74796C28.737 2.23287 23.9711 0.255624 19 0.25ZM19 36.5C15.5388 36.5 12.1554 35.4736 9.27753 33.5507C6.39967 31.6278 4.15665 28.8947 2.83212 25.697C1.50758 22.4993 1.16102 18.9806 1.83627 15.5859C2.51151 12.1913 4.17822 9.07305 6.62564 6.62563C9.07306 4.17821 12.1913 2.5115 15.5859 1.83626C18.9806 1.16102 22.4993 1.50757 25.697 2.83211C28.8947 4.15664 31.6278 6.39966 33.5507 9.27752C35.4737 12.1554 36.5 15.5388 36.5 19C36.4947 23.6397 34.6493 28.0878 31.3685 31.3685C28.0878 34.6493 23.6397 36.4947 19 36.5Z" fill="#5F82FF"/>
<path d="M30.0346 9.49562C30.0346 9.10352 29.9183 8.72023 29.7005 8.39421C29.4826 8.06819 29.173 7.81408 28.8108 7.66403C28.4485 7.51398 28.0499 7.47472 27.6653 7.55122C27.2808 7.62771 26.9275 7.81653 26.6502 8.09378C26.373 8.37104 26.1842 8.72429 26.1077 9.10886C26.0312 9.49342 26.0704 9.89204 26.2205 10.2543C26.3705 10.6165 26.6246 10.9262 26.9507 11.144C27.2767 11.3619 27.66 11.4781 28.0521 11.4781C28.3239 11.478 28.5927 11.4214 28.8415 11.3119C30.6002 13.5638 31.534 16.3504 31.4874 19.2074C31.4408 22.0643 30.4165 24.819 28.5853 27.0123C26.754 29.2057 24.2264 30.7052 21.4237 31.261C18.621 31.8168 15.7124 31.3954 13.1827 30.0669C13.0362 29.9908 12.8655 29.9757 12.708 30.025C12.5504 30.0742 12.4187 30.1839 12.3417 30.3299C12.2647 30.4759 12.2486 30.6465 12.2969 30.8044C12.3452 30.9622 12.454 31.0946 12.5996 31.1725C15.3893 32.6436 18.6001 33.1103 21.6931 32.4943C24.7862 31.8783 27.5732 30.2171 29.5865 27.7895C31.5997 25.3619 32.7166 22.3156 32.7497 19.162C32.7828 16.0084 31.7302 12.9394 29.7683 10.47C29.9406 10.174 30.0323 9.83808 30.0346 9.49562ZM27.3196 9.49562C27.3196 9.35075 27.3625 9.20913 27.443 9.08867C27.5235 8.96821 27.6379 8.87432 27.7718 8.81888C27.9056 8.76344 28.0529 8.74893 28.195 8.7772C28.3371 8.80546 28.4676 8.87523 28.57 8.97767C28.6725 9.08011 28.7422 9.21063 28.7705 9.35272C28.7988 9.49481 28.7843 9.64209 28.7288 9.77594C28.6734 9.90979 28.5795 10.0242 28.459 10.1047C28.3386 10.1852 28.197 10.2281 28.0521 10.2281C27.9559 10.2281 27.8606 10.2092 27.7718 10.1724C27.6829 10.1356 27.6021 10.0816 27.5341 10.0136C27.4661 9.94556 27.4122 9.86481 27.3753 9.77594C27.3385 9.68707 27.3196 9.59182 27.3196 9.49562Z" fill="#5F82FF"/>
<path d="M9.49546 26.5219C9.34987 26.5228 9.20483 26.5398 9.06296 26.5725C7.39344 24.4019 6.4919 21.7384 6.49984 19C6.50364 15.686 7.82183 12.5088 10.1652 10.1654C12.5086 7.82202 15.6858 6.50383 18.9998 6.50003C20.8278 6.49522 22.6342 6.89521 24.2892 7.67128C24.4394 7.74156 24.6113 7.74931 24.7672 7.69281C24.9231 7.63632 25.0502 7.52021 25.1205 7.37003C25.1907 7.21985 25.1985 7.0479 25.142 6.89201C25.0855 6.73612 24.9694 6.60906 24.8192 6.53878C22.0435 5.23956 18.9132 4.9054 15.9258 5.58943C12.9383 6.27345 10.2653 7.9364 8.33145 10.314C6.39761 12.6915 5.31396 15.6473 5.25274 18.7114C5.19153 21.7755 6.15626 24.7721 7.99359 27.225C7.68532 27.5802 7.51477 28.0341 7.51296 28.5044C7.51296 28.8965 7.62924 29.2798 7.84708 29.6058C8.06492 29.9318 8.37454 30.1859 8.73679 30.336C9.09905 30.486 9.49766 30.5253 9.88223 30.4488C10.2668 30.3723 10.62 30.1835 10.8973 29.9062C11.1746 29.629 11.3634 29.2757 11.4399 28.8912C11.5164 28.5066 11.4771 28.108 11.3271 27.7457C11.177 27.3835 10.9229 27.0739 10.5969 26.856C10.2709 26.6382 9.88757 26.5219 9.49546 26.5219ZM9.49546 29.2369C9.35059 29.2369 9.20897 29.1939 9.08851 29.1135C8.96805 29.033 8.87416 28.9186 8.81872 28.7847C8.76328 28.6509 8.74878 28.5036 8.77704 28.3615C8.8053 28.2194 8.87507 28.0889 8.97751 27.9864C9.07995 27.884 9.21047 27.8142 9.35256 27.786C9.49465 27.7577 9.64193 27.7722 9.77578 27.8277C9.90963 27.8831 10.024 27.977 10.1045 28.0974C10.185 28.2179 10.228 28.3595 10.228 28.5044C10.228 28.6006 10.209 28.6958 10.1722 28.7847C10.1354 28.8736 10.0814 28.9543 10.0134 29.0224C9.9454 29.0904 9.86465 29.1443 9.77578 29.1811C9.68691 29.218 9.59166 29.2369 9.49546 29.2369Z" fill="#5F82FF"/>
</svg>
